<?xml version="1.0" encoding="UTF-8" standalone="no" ?>
<!DOCTYPE svg PUBLIC "-//W3C//DTD SVG 1.1//EN" "http://www.w3.org/Graphics/SVG/1.1/DTD/svg11.dtd">
<svg xmlns="http://www.w3.org/2000/svg" xmlns:xlink="http://www.w3.org/1999/xlink" version="1.1" width="500" height="500" viewBox="0 0 500 500" xml:space="preserve">
<desc>Created with Fabric.js 4.6.0</desc>
<defs>
</defs>
<g transform="matrix(1.56 -1.56 0.33 0.33 143 212)" id="pCGh4xmZIFGOJ5r-_2lZX"  >
<path style="stroke: rgb(12,33,32); stroke-width: 0; stroke-dasharray: none; stroke-linecap: butt; stroke-dashoffset: 0; stroke-linejoin: miter; stroke-miterlimit: 4; fill: rgb(255,255,255); fill-rule: nonzero; opacity: 1;" vector-effect="non-scaling-stroke"  transform=" translate(0, 0)" d="M -30.75031 -2.51532 C -30.75031 -18.10907 -28.111269999999998 -30.7503 -24.85585 -30.7503 L 24.855839999999997 -30.7503 L 24.855839999999997 -30.7503 C 28.111259999999998 -30.7503 30.750299999999996 -18.10907 30.750299999999996 -2.515319999999999 L 30.750299999999996 2.5153300000000005 L 30.750299999999996 2.5153300000000005 C 30.750299999999996 18.10908 28.111259999999994 30.75031 24.855839999999997 30.75031 L -24.85585 30.75031 L -24.85585 30.75031 C -28.11127 30.75031 -30.75031 18.10908 -30.75031 2.5153299999999987 z" stroke-linecap="round" />
</g>
<g transform="matrix(1.56 1.56 0.33 -0.33 143 288)" id="A7uz1WxL4cUPUK3NdX70r"  >
<path style="stroke: rgb(12,33,32); stroke-width: 0; stroke-dasharray: none; stroke-linecap: butt; stroke-dashoffset: 0; stroke-linejoin: miter; stroke-miterlimit: 4; fill: rgb(255,255,255); fill-rule: nonzero; opacity: 1;" vector-effect="non-scaling-stroke"  transform=" translate(0, 0)" d="M -30.75031 -2.51532 C -30.75031 -18.10907 -28.111269999999998 -30.7503 -24.85585 -30.7503 L 24.855839999999997 -30.7503 L 24.855839999999997 -30.7503 C 28.111259999999998 -30.7503 30.750299999999996 -18.10907 30.750299999999996 -2.515319999999999 L 30.750299999999996 2.5153300000000005 L 30.750299999999996 2.5153300000000005 C 30.750299999999996 18.10908 28.111259999999994 30.75031 24.855839999999997 30.75031 L -24.85585 30.75031 L -24.85585 30.75031 C -28.11127 30.75031 -30.75031 18.10908 -30.75031 2.5153299999999987 z" stroke-linecap="round" />
</g>
<g transform="matrix(-1.56 -1.56 -0.33 0.33 357 212)" id="3QrNeD3Db7mOjT-QKGaZM"  >
<path style="stroke: rgb(12,33,32); stroke-width: 0; stroke-dasharray: none; stroke-linecap: butt; stroke-dashoffset: 0; stroke-linejoin: miter; stroke-miterlimit: 4; fill: rgb(255,255,255); fill-rule: nonzero; opacity: 1;" vector-effect="non-scaling-stroke"  transform=" translate(0, 0)" d="M -30.75031 -2.51532 C -30.75031 -18.10907 -28.111269999999998 -30.7503 -24.85585 -30.7503 L 24.855839999999997 -30.7503 L 24.855839999999997 -30.7503 C 28.111259999999998 -30.7503 30.750299999999996 -18.10907 30.750299999999996 -2.515319999999999 L 30.750299999999996 2.5153300000000005 L 30.750299999999996 2.5153300000000005 C 30.750299999999996 18.10908 28.111259999999994 30.75031 24.855839999999997 30.75031 L -24.85585 30.75031 L -24.85585 30.75031 C -28.11127 30.75031 -30.75031 18.10908 -30.75031 2.5153299999999987 z" stroke-linecap="round" />
</g>
<g transform="matrix(-1.56 1.56 -0.33 -0.33 357 288)" id="ixkEE24zwM2pcb0zS7sCG"  >
<path style="stroke: rgb(12,33,32); stroke-width: 0; stroke-dasharray: none; stroke-linecap: butt; stroke-dashoffset: 0; stroke-linejoin: miter; stroke-miterlimit: 4; fill: rgb(255,255,255); fill-rule: nonzero; opacity: 1;" vector-effect="non-scaling-stroke"  transform=" translate(0, 0)" d="M -30.75031 -2.51532 C -30.75031 -18.10907 -28.111269999999998 -30.7503 -24.85585 -30.7503 L 24.855839999999997 -30.7503 L 24.855839999999997 -30.7503 C 28.111259999999998 -30.7503 30.750299999999996 -18.10907 30.750299999999996 -2.515319999999999 L 30.750299999999996 2.5153300000000005 L 30.750299999999996 2.5153300000000005 C 30.750299999999996 18.10908 28.111259999999994 30.75031 24.855839999999997 30.75031 L -24.85585 30.75031 L -24.85585 30.75031 C -28.11127 30.75031 -30.75031 18.10908 -30.75031 2.5153299999999987 z" stroke-linecap="round" />
</g>
</svg>